<?xml version="1.0" encoding="utf-8"?><svg version="1.1" id="Layer_1" xmlns="http://www.w3.org/2000/svg" xmlns:xlink="http://www.w3.org/1999/xlink" x="0px" y="0px" width="121.699px" fill="#fff" height="122.881px" viewBox="0 0 121.699 122.881" enable-background="new 0 0 121.699 122.881" xml:space="preserve"><g><path d="M53.613,0c14.79,0,28.202,6.019,37.918,15.694c9.715,9.715,15.693,23.089,15.693,37.918 c0,10.817-3.225,20.927-8.732,29.343l23.207,25.293l-16.008,14.633L83.311,98.256c-8.496,5.664-18.725,8.969-29.698,8.969 c-14.79,0-28.203-6.018-37.918-15.693C5.979,81.814,0,68.441,0,53.612c0-14.79,6.018-28.203,15.695-37.918 C25.41,5.979,38.784,0,53.613,0L53.613,0z M62.389,30.703H48.282c-0.082,0-0.154,0.031-0.215,0.092 c-0.051,0.052-0.092,0.134-0.092,0.216v3.172h14.711v-3.172c0-0.082-0.031-0.154-0.092-0.216c-0.053-0.051-0.135-0.092-0.217-0.092 H62.389L62.389,30.703z M28.399,34.281h15.572v-4.465c0-0.678,0.277-1.283,0.719-1.725s1.057-0.719,1.725-0.719h17.83 c0.678,0,1.283,0.277,1.727,0.719c0.439,0.441,0.717,1.057,0.717,1.725v4.465H82.26c0.955,0,1.816,0.39,2.434,1.016 c0.627,0.626,1.016,1.488,1.016,2.433v8.924c-3.832,2.603-7.781,4.831-11.855,6.655c-4.473,2.004-9.1,3.529-13.889,4.537v-3.22 c0-0.657-0.268-1.263-0.698-1.694c-0.431-0.431-1.037-0.698-1.694-0.698h-4.486l0,0c-0.656,0-1.262,0.267-1.693,0.698 c-0.431,0.431-0.698,1.037-0.698,1.694v3.15c-4.673-1.008-9.192-2.509-13.563-4.467c-4.189-1.877-8.247-4.18-12.181-6.877V37.73 c0-0.954,0.39-1.817,1.016-2.433C26.593,34.671,27.455,34.281,28.399,34.281L28.399,34.281L28.399,34.281z M85.709,50.439v23.197 c0,0.955-0.389,1.818-1.016,2.434c-0.627,0.627-1.488,1.016-2.434,1.016H28.399c-0.954,0-1.816-0.389-2.433-1.016 c-0.626-0.627-1.016-1.488-1.016-2.434V50.23c3.477,2.249,7.054,4.207,10.739,5.858c4.705,2.107,9.582,3.711,14.642,4.774 c0.122,0.025,0.244,0.038,0.363,0.038v3.191c0,0.656,0.268,1.262,0.698,1.693c0.431,0.432,1.037,0.697,1.693,0.697h4.486 c0.657,0,1.263-0.266,1.694-0.697c0.431-0.432,0.698-1.037,0.698-1.693V60.87c0.221,0.042,0.455,0.042,0.689-0.007 c5.061-1.063,9.938-2.667,14.641-4.774C78.865,54.489,82.336,52.601,85.709,50.439L85.709,50.439z M87.283,19.942 C78.668,11.329,66.75,5.979,53.613,5.979c-13.138,0-25.056,5.35-33.67,13.963S5.979,40.475,5.979,53.612s5.35,25.056,13.964,33.671 c8.614,8.613,20.532,13.963,33.67,13.963c13.137,0,25.055-5.35,33.67-13.963c8.613-8.615,13.963-20.533,13.963-33.671 S95.896,28.556,87.283,19.942L87.283,19.942L87.283,19.942z" fill="#757575"/></g></svg>